<svg id="Layer_1" data-name="Layer 1" xmlns="http://www.w3.org/2000/svg" xmlns:xlink="http://www.w3.org/1999/xlink" viewBox="0 0 52.09 52.09"><defs><style>.cls-1{fill:#fff;}.cls-2{mask:url(#mask);}.cls-3{fill:#9383bd;}.cls-4{fill:#8e71b2;}.cls-5{fill:#97cb95;}.cls-6{fill:#67a572;}.cls-7{fill:#e02827;}.cls-8{fill:#dab07e;}.cls-9{fill:#e12c2a;}.cls-10{fill:#d2c7b6;}.cls-11{fill:#b3a187;}.cls-12{fill:#cebca5;}.cls-13{fill:#e7cba9;}.cls-14{fill:#711111;}.cls-15{fill:#5a6670;}.cls-16{fill:#545554;}.cls-17{fill:#e1e327;}.cls-18{fill:#2a62ae;}.cls-19{fill:#4f2d16;}.cls-20{fill:#d51f26;}.cls-21{fill:#71401c;}.cls-22{fill:#4db748;}.cls-23{fill:#281d10;}.cls-24{fill:#54290e;}.cls-25{fill:#713917;}.cls-26{fill:#e13f96;}</style><mask id="mask" x="0" y="-0.15" width="52.27" height="55.8" maskUnits="userSpaceOnUse"><g id="mask0"><path class="cls-1" d="M26.27,51.85a26,26,0,1,0-26-26A26,26,0,0,0,26.27,51.85Z"/></g></mask></defs><g class="cls-2"><path d="M26.05,52.09a26,26,0,1,0-26-26A26,26,0,0,0,26.05,52.09Z"/><path class="cls-3" d="M19.58,40.17l29.76-39,1.48,2.18-6,45.17a.29.29,0,0,1,0,.13c-.35,1.08-6.34.12-13.36-2.15s-12.43-5-12.07-6.1a.39.39,0,0,1,.16-.2Z"/><path class="cls-4" d="M19.41,40.37c-.36,1.09,4.91,4.44,11.94,6.71s13.13,2.62,13.49,1.54-5.06-3.81-12.08-6.09S19.76,39.29,19.41,40.37Z"/><path class="cls-5" d="M31.16,41,5.35,6.84,3.25,9.63,6,53.64a.28.28,0,0,0,0,.13c.51,1,6.59-1,13.57-4.47s12.24-7.15,11.73-8.17A.35.35,0,0,0,31.16,41Z"/><path class="cls-6" d="M31.3,41.09c.51,1-4.34,5.27-11.32,8.76S6.51,54.76,6,53.73s4.74-4.68,11.73-8.17S30.79,40.07,31.3,41.09Z"/><path d="M5.35,6.84,31.14,40.93l.08.06a.32.32,0,0,1,.14.14c.1.2,0,.51-.35.9-1.18,1.72-5.41,5-11,7.82S9.29,54.06,7.09,54.06a3,3,0,0,1-.52,0,.93.93,0,0,1-.37-.1.44.44,0,0,1-.2-.18.43.43,0,0,1,0-.19.39.39,0,0,1,0-.18L3.25,9.63l2.1-2.79Zm0-2.64L4.08,5.88,2,8.68l-.35.47,0,.59L4.41,53.23a1.91,1.91,0,0,0,.17,1.22,2,2,0,0,0,.85.85,2.54,2.54,0,0,0,.93.3,5.85,5.85,0,0,0,.73,0c2.85,0,8.44-1.8,13.6-4.38s10-6,11.59-8.27a2.27,2.27,0,0,0,.5-2.57,1.88,1.88,0,0,0-.51-.64L6.61,5.88,5.34,4.2Z"/><path class="cls-7" d="M36.87,18.26H38v2.2s0,.05.06.05h1s.06,0,.06-.06V18.26h1.12v2.19c0,.05,0,.06.06.06h2.13c.06,0,.06,0,.06-.06v-1s0-.05.06-.05h1c.06,0,.07,0,.07.07v2.12s0,.06.05.06h1.07v1c0,.08,0,.08.09.08h2.09c.06,0,.08,0,.08.07v1c0,.06,0,.07-.08.07H44.81c-.05,0-.07,0-.07.06v1c0,.06,0,.08.08.08h3.3v1.12H47.05s-.06,0-.06,0v1s0,0,0,0h1.09v1.13H47.05s-.06,0-.06.06v1c0,.05,0,.06-.06.06h-1s-.06,0-.06.06v1c0,.05,0,.06.06.06h1s0,0,0,.06v1s0,.06,0,.06h-1c-.06,0-.07,0-.07.07V34c0,.06,0,.07-.07.07H44.73V27.35c0-.07,0-.08-.08-.08h-1V25.1c0-.06,0-.07-.07-.07h-2.1c-.08,0-.08,0-.08-.08V24c0-.06,0-.08-.08-.08H35.81c-.06,0-.08,0-.07.08V25H34.69c-.06,0-.07,0-.07.07v2.16H33.56c-.05,0-.07,0-.07.06v1c0,.06,0,.07-.07.07h-1s-.08,0-.07.06v3.26c0,.05,0,.06.06.05h1c.06,0,.08,0,.08.08V34H32.43s-.06,0-.06-.06V33c0-.06,0-.07-.07-.07h-1c-.06,0-.08,0-.08-.08v-1c0-.05,0-.06-.06-.06h-1c-.05,0-.07,0-.07-.06v-1c0-.05,0-.06.06-.06h1s.07,0,.07-.06v-1c0-.05,0-.06-.06-.06h-1c-.05,0-.07,0-.07-.07v-1c0-.05,0-.07.07-.07h1s.06,0,.06-.05V26.19c0-.05,0-.06-.06-.06h-1c-.05,0-.07,0-.07-.07V25H31.2s.06,0,.06-.06V21.7c0-.05,0-.08.06-.07h1.06v1.06s0,.06.07.06h1.06v1.09c0,.05,0,0,.06,0h1c.05,0,.06,0,.06-.05v-1s0-.08-.08-.08h-1V21.64h2.21s.05,0,0,0V20.51h1.06c.05,0,.07,0,.07-.07V18.32S36.88,18.28,36.87,18.26Z"/><path class="cls-7" d="M48.11,21.64H44.74V20.59c0-.07,0-.08.08-.08h3.29Z"/><path d="M44.74,34v2.18s0,.06-.06.06H43.62V28.45c0-.06,0-.07-.07-.07H40.38c-.14,0-.14,0-.14.14v1H38V28.45c0-.06,0-.07-.07-.07H34.71c-.06,0-.07,0-.07.07v1.06H33.58s-.06,0-.06.06v1c0,.05,0,.07.06.07h1.06v5.6H33.56s0,0,0,0V31.82c0-.06,0-.08-.07-.08h-1c-.05,0-.06,0-.06,0V28.43c0-.06,0-.06.07-.06h1c.06,0,.08,0,.08-.07v-1s0-.06.06-.06h11.1c.06,0,.08,0,.08.07v6.6s0,0,0,0a.09.09,0,0,0,0,0Z"/><path class="cls-8" d="M43.62,27.26h-9V25.08c0-.06,0-.07.07-.07h1v1c0,.05,0,.07.07.07h1s.07,0,.07-.07v-1c0-.07,0-.07-.08-.07H35.75V24c0-.06,0-.08.08-.08h5.46c.07,0,.08,0,.08.08v.95c0,.08,0,.08.08.08h2.1c.06,0,.07,0,.07.07Z"/><path class="cls-9" d="M32.38,21.64v-2.2s0-.05.06-.05h1s.06,0,.06.06v2.19Z"/><path d="M35.75,41.85H34.63V36.24h1c.07,0,.08,0,.08.08v5.53Z"/><path class="cls-7" d="M29,25V23.88h1.05c.05,0,.06,0,.06.07V25Z"/><path d="M40.25,41.85H39.12V39.67c0-.05,0-.06-.06-.06h-1s-.06,0-.06,0V38.49h3.36v1.07s0,0,0,0h-1c-.06,0-.08,0-.08.08v2.16Z"/><path d="M41.37,38.49V37.43s0-.07.06-.07h1s.07,0,.07-.07v-1s0-.07.06-.07h1.06v1.08s0,0,0,0h-1c-.05,0-.06,0-.06.06v1s0,.07-.07.07Z"/><path class="cls-7" d="M35.75,20.52h-1c-.08,0-.08,0-.08-.09v-1c0-.05,0-.06.06-.06h1c.05,0,.06,0,.06.06v1.07Z"/><path class="cls-8" d="M43.62,36.24H42.56c-.06,0-.07,0-.07.07v1c0,.05,0,.07-.06.07h-1s-.06,0-.06.07v1.05H38V37.43s0-.07-.06-.07h-1s-.07,0-.06.07v1s0,.06.06.06H38v1.09c0,.05,0,0,.06,0h1s.07,0,.07.06v2.17H35.75V36.32c0-.06,0-.09-.08-.09H34.62V31.75h3.31s.07,0,.07-.07V29.51h2.24v2.17c0,.05,0,.07.07.07h3.31v4.49Zm-3.93-1.12H38.07c-.06,0-.07,0-.07.07v1s0,.06.06.06H41.3c.06,0,.07,0,.06-.06v-1s0-.07-.06-.07Zm.56-1.69v-.51s0-.05,0-.05h-1s0,0,0,.05v1s0,0,0,0h1s0,0,0-.06,0-.33,0-.51Z"/><path class="cls-10" d="M43.62,31.75h-3.3c-.06,0-.08,0-.08-.08V28.51c0-.13,0-.13.14-.13h1v1.05a.09.09,0,0,0,0,.07v1.06s0,.06.06.06h2.19Z"/><path class="cls-10" d="M38,30.62v1.06c0,.06,0,.07-.07.07h-3.3v-3.3c0-.05,0-.07.07-.07h1v2.18c0,.06,0,.06.07.06H38Z"/><path class="cls-11" d="M41.37,29.5V28.38h2.19s.07,0,.07.07v1.06H41.37Z"/><path class="cls-11" d="M35.75,29.51V28.38h2.18c.06,0,.07,0,.07.08v1.05Z"/><path class="cls-8" d="M34.63,29.5v1.13H33.57s-.06,0-.06-.07v-1s0-.06.05-.06Z"/><path class="cls-12" d="M42.48,29.5h1.13v1.12H42.48Z"/><path class="cls-13" d="M35.75,25h1.06s.08,0,.07.07v1c0,.06,0,.07-.06.07h-1c-.06,0-.08,0-.08-.07Z"/><path class="cls-14" d="M39.69,35.12H41.3c.06,0,.07,0,.07.07v1s0,.07-.06.07H38.06c-.05,0-.06,0-.06-.07v-1s0-.07.07-.07Z"/><path d="M38,38.49H36.94s-.07,0-.06-.06v-1s0-.07.06-.07h1c.05,0,.06,0,.06.07v1.06Z"/><path class="cls-12" d="M36.87,29.5H38v1.12H36.87V29.5Z"/><path d="M40.25,33.43v.51s0,.06-.06.06h-1s-.05,0-.05,0v-1s0,0,.05,0h1s0,0,0,.05Z"/><path class="cls-15" d="M42.48,29.5v1.12H41.42c-.05,0-.06,0-.06-.06V29.5Z"/><path class="cls-15" d="M36.87,29.5v1.12h-1s-.07,0-.07-.05V29.5Z"/><path class="cls-16" d="M22.29,22.19h0V37.92h0V22.19Z"/><path class="cls-16" d="M18.67,17.35h0Z"/><path class="cls-16" d="M9,42.78h6v0Z"/><path class="cls-17" d="M16.26,19.77h1.2V22.1c0,.09,0,.09.09.09h1c.14,0,.12,0,.12.12v1c0,.14,0,.14.15.14h1c.08,0,.08,0,.08.07v1.14H11.41V23.49c0-.08,0-.08.08-.08h1c.09,0,.09,0,.09-.09V22.24s0,0,.05,0h1.07c.1,0,.09,0,.09-.1V19.78h2.43Z"/><path d="M7.79,31.87V28.25a.17.17,0,0,1,.1,0h1c.13,0,.11,0,.11-.11V24.62h1.21v3.56c0,.06,0,.07-.07.07H9.09c-.08,0-.09,0-.09.09v2.24c0,.08,0,.08.08.09h1.05c.08,0,.09,0,.09.08v12H9V32c0-.12,0-.12-.12-.12H7.79Z"/><path class="cls-18" d="M10.22,24.62H9v-2.3c0-.11,0-.1.1-.1h1.06s.05,0,.05,0V21.06c0-.07,0-.07.07-.07h1c.09,0,.09,0,.09-.09V19.82s0,0,.05,0h2.37V22.1c0,.1,0,.1-.09.1H12.68s0,0,0,0v1.08c0,.08,0,.08-.09.08h-1c-.08,0-.08,0-.08.09v1.12h-1.2Z"/><path class="cls-18" d="M12.63,17.37h6v1.14c0,.06,0,.06-.07.06H15.05a.21.21,0,0,0-.11,0H12.72c-.13,0-.11,0-.11-.11Z"/><path d="M15.05,18.58s0,0,.06,0h1.15v1.2H15.05Z"/><path class="cls-19" d="M10.22,36.71V31.88h1.15s0,0,0,0V33s0,.06.06.06h1.09s.07,0,.07.06v1c0,.13,0,.12.12.12h7.06c.08,0,.08,0,.08-.08V33.16c0-.07,0-.07.07-.07H21.1v4.74c0,.08,0,.08.08.08H19.9l0,0h0v1.1s0,.06.05.06h1.16s-.06,0-.09,0H12.68s-.06,0,0-.06V38s0,0,0,0H11.43a0,0,0,0,1,0,0h0a.08.08,0,0,1,0-.07v-1c0-.07,0-.07-.08-.07Zm6.63,0h1.72c.1,0,.1,0,.1-.1v-1c0-.08,0-.08-.09-.08H15.07a0,0,0,0,0,0,0h0v1.12c0,.05,0,.06.07.06Z"/><path d="M13.84,39.14h6v1.17s0,0,0,0H15.16c-.11,0-.11,0-.11.11v2.3H13.84Z"/><path d="M21.09,39.12H19.93s0,0,0,0V38s0,0,0,0H21.1V39a.28.28,0,0,1,0,.09Z"/><path class="cls-20" d="M19.88,24.62V23.47c0-.07,0-.07-.08-.07h-1c-.15,0-.15,0-.15-.14v-1c0-.13,0-.12-.12-.12h-1c-.08,0-.08,0-.08-.09V19.78h2.35c.06,0,.06,0,.06.06v1.1s0,0,.05,0h1.13s0,0,0,0v1.09c0,.08,0,.08.08.08h1.11v2.41H19.88Z"/><path d="M21.1,24.63h1.19V37.92H21.18c-.08,0-.08,0-.08-.09V24.63Z"/><path class="cls-21" d="M13.84,39.14v3.62H10.22v-6h1.12c.07,0,.07,0,.07.07v1.13h1.16s0,0,0,0v1.12a.05.05,0,0,0,.06.06h1.16Z"/><path class="cls-22" d="M11.41,24.61h8.48v1.1c0,.12,0,.11-.12.11H11.53c-.13,0-.11,0-.11-.12V24.62Z"/><path class="cls-21" d="M11.41,24.61v1.1c0,.13,0,.11.12.11h8.24c.13,0,.12,0,.12-.11V24.62H21a.2.2,0,0,1,.11,0V27H18.77c-.1,0-.1,0-.1.1v2.26s0,.06.06.06h2.36v3.62H20c-.07,0-.07,0-.08.07V34.2c0,.08,0,.08-.07.08H12.75c-.13,0-.12,0-.12-.12v-1c0-.05,0-.06-.07-.06H11.47s-.06,0-.06,0V31.9s0,0,0,0H10.22V30.75c0-.07,0-.08-.09-.08H9.08c-.07,0-.08,0-.08-.08V28.34c0-.09,0-.09.09-.09h1.06c.06,0,.07,0,.07-.07V24.62h1.19Zm2.43,4.84H15c.08,0,.08,0,.08-.09V27.12c0-.08,0-.08-.08-.08H12.72c-.09,0-.09,0-.09.07v2.26c0,.07,0,.08.06.08Zm3.62,3.64h1.13c.08,0,.08,0,.08-.09V32c0-.08,0-.08-.08-.08H16.34c-.09,0-.09,0-.09.09v1c0,.1,0,.1.1.1Z"/><path class="cls-23" d="M16.85,36.71H15.12s-.07,0-.06-.06V35.51h3.53c.08,0,.08,0,.09.08v1c0,.1,0,.1-.11.1Z"/><path class="cls-24" d="M18.67,28.26V27.13c0-.09,0-.09.1-.09h2.32v1.22Z"/><path class="cls-25" d="M19.89,28.25h1.2v1.19h-1.2Z"/><path class="cls-24" d="M12.63,28.26V27.12c0-.08,0-.08.09-.08H15c.08,0,.08,0,.08.08v1.13H12.63Z"/><path d="M17.46,33.09H16.35c-.1,0-.1,0-.1-.1V32c0-.13,0-.09.09-.09h2.25c.09,0,.09,0,.09.08v1c0,.08,0,.08-.09.08Z"/><path d="M12.63,28.26h1.21v1.19H12.68c-.06,0-.06,0-.06-.07Z"/><path class="cls-25" d="M13.84,29.45v-1.2h1.21v1.11c0,.09,0,.09-.08.09Z"/><path d="M19.89,28.25v1.2H18.73c-.05,0-.06,0-.06-.06V28.26Z"/><path class="cls-26" d="M17.62,11a4.78,4.78,0,0,1,.95-2.57,4.72,4.72,0,0,1,2.2-1.62,4.83,4.83,0,0,1,2.74-.14,4.76,4.76,0,0,1,2.35,1.39L24.6,9.26a2.91,2.91,0,0,0-1-.76,3,3,0,0,0-1.21-.26,2.73,2.73,0,0,0-1,.16,2.65,2.65,0,0,0-.88.54,2.52,2.52,0,0,0-.61.84,2.49,2.49,0,0,0-.24,1V11a2.53,2.53,0,0,0,.15,1,2.65,2.65,0,0,0,.54.88,2.59,2.59,0,0,0,.83.61,2.73,2.73,0,0,0,1,.25h.23a2.91,2.91,0,0,0,1.2-.26,2.7,2.7,0,0,0,1-.77l1.27,1.19A4.74,4.74,0,0,1,17.62,11Z"/><path class="cls-26" d="M35,9.83C35,11.75,33.5,13,31.19,13H29.46v2.38h-2V6.7h3.73C33.5,6.7,35,7.9,35,9.83Zm-2,0c0-.95-.61-1.5-1.84-1.5H29.46v3h1.61c1.24,0,1.85-.54,1.85-1.49Z"/></g></svg>