<svg id="Layer_1" data-name="Layer 1" xmlns="http://www.w3.org/2000/svg" viewBox="0 0 28.1 35"><defs><style>.cls-1{fill:#f1582f;}.cls-2{fill:#fff;}.cls-3{fill:none;stroke:#f1582f;stroke-width:2px;}</style></defs><path class="cls-1" d="M17.9,35l-3.43-5.95a2.7,2.7,0,0,1,1.18-4c1.73-1,3.23-.61,4.14,1l3.43,5.95-3.87-.56Z"/><path class="cls-1" d="M5,31.93,8.43,26a2.71,2.71,0,0,1,4.1-1c1.72,1,2.13,2.49,1.22,4.07L10.32,35,8.87,31.37Z"/><path class="cls-2" d="M14.05,28.1a14.05,14.05,0,1,0-14-14A14,14,0,0,0,14.05,28.1Z"/><path class="cls-3" d="M27.1,14.05a13.05,13.05,0,1,1-13-13A13,13,0,0,1,27.1,14.05Z"/></svg>